<svg xmlns="http://www.w3.org/2000/svg" xmlns:xlink="http://www.w3.org/1999/xlink" width="500" zoomAndPan="magnify" viewBox="0 0 375 374.999991" height="500" preserveAspectRatio="xMidYMid meet" version="1.0"><defs><filter x="0%" y="0%" width="100%" height="100%" id="bfa46609d6"><feColorMatrix values="0 0 0 0 1 0 0 0 0 1 0 0 0 0 1 0 0 0 1 0" color-interpolation-filters="sRGB"/></filter><mask id="4c44fb03af"><g filter="url(#bfa46609d6)"><rect x="-37.5" width="450" fill="#000000" y="-37.499999" height="449.999989" fill-opacity="0.949"/></g></mask><clipPath id="00027aff77"><path d="M 0.28125 0.332031 L 100.359375 0.332031 L 100.359375 150.332031 L 0.28125 150.332031 Z M 0.28125 0.332031 " clip-rule="nonzero"/></clipPath><clipPath id="7e093db563"><rect x="0" width="101" y="0" height="151"/></clipPath></defs><g mask="url(#4c44fb03af)"><g transform="matrix(1, 0, 0, 1, 137, 93)"><g clip-path="url(#7e093db563)"><g clip-path="url(#00027aff77)"><path fill="#d62828" d="M 93.597656 75.335938 L 72.234375 38.265625 C 70.847656 35.859375 67.660156 35.242188 65.476562 36.949219 C 64.121094 38.015625 62.753906 39.082031 61.414062 40.199219 C 56.703125 44.132812 53.324219 48.78125 52.523438 55.019531 C 50.882812 67.746094 58.34375 79.121094 64.902344 89.300781 C 71.929688 100.195312 78.847656 111.789062 78.445312 125.230469 C 78.335938 128.867188 77.796875 132.414062 76.886719 135.835938 C 76.101562 138.785156 79.546875 140.984375 81.90625 139.054688 C 86.472656 135.324219 90.449219 130.71875 93.566406 125.304688 L 94.398438 123.863281 C 102.226562 109.144531 102.527344 90.84375 93.597656 75.335938 Z M 70.605469 116.625 C 67.746094 104.21875 59.171875 94.25 52.996094 83.417969 C 46.996094 72.894531 42.605469 59.832031 47.089844 47.878906 C 49.199219 42.257812 52.996094 37.964844 57.628906 34.261719 C 57.65625 34.238281 57.683594 34.214844 57.710938 34.195312 C 62.496094 30.382812 63.820312 23.664062 60.761719 18.359375 L 50.394531 0.367188 L 28.839844 37.773438 C 24.699219 44.957031 24.398438 53.753906 28.097656 61.179688 C 28.121094 61.222656 28.140625 61.269531 28.164062 61.316406 C 31.105469 67.203125 34.496094 72.855469 37.425781 78.75 C 40.308594 84.570312 42.683594 90.648438 44.347656 96.933594 C 47.625 109.28125 49.523438 123.898438 44.3125 135.964844 C 43.109375 138.75 41.539062 141.34375 39.761719 143.800781 C 38.164062 146.011719 39.4375 149.144531 42.125 149.601562 C 44.339844 149.976562 46.582031 150.203125 48.835938 150.277344 C 49.109375 150.285156 49.375 150.292969 49.644531 150.296875 C 50.144531 150.304688 50.640625 150.304688 51.136719 150.296875 C 51.40625 150.292969 51.675781 150.285156 51.945312 150.277344 C 51.980469 150.273438 52.019531 150.273438 52.054688 150.273438 C 59.488281 150.011719 66.019531 145.246094 68.699219 138.296875 C 71.359375 131.402344 72.273438 123.859375 70.605469 116.625 Z M 39.964844 125.980469 C 38.964844 132.109375 35.96875 137.558594 32.109375 142.421875 C 30.558594 144.382812 27.792969 144.933594 25.625 143.695312 C 18.214844 139.453125 11.792969 133.246094 7.21875 125.304688 L 6.347656 123.792969 C -1.441406 109.089844 -1.726562 90.816406 7.195312 75.335938 L 15.28125 61.304688 C 16.464844 59.253906 19.480469 59.40625 20.429688 61.570312 C 24.601562 71.070312 30.777344 79.722656 34.527344 89.410156 C 36.792969 95.265625 38.441406 101.359375 39.441406 107.558594 C 40.40625 113.542969 40.949219 119.964844 39.964844 125.980469 " fill-opacity="1" fill-rule="nonzero"/></g></g></g></g></svg>